<?xml version="1.0" standalone="no"?>
<!DOCTYPE svg PUBLIC "-//W3C//DTD SVG 20010904//EN"
 "http://www.w3.org/TR/2001/REC-SVG-20010904/DTD/svg10.dtd">
<svg version="1.0" xmlns="http://www.w3.org/2000/svg"
 width="184.000000pt" height="195.000000pt" viewBox="0 0 184.000000 195.000000"
 preserveAspectRatio="xMidYMid meet">

<g transform="translate(0.000000,195.000000) scale(0.100000,-0.100000)"
fill="#000000" stroke="none">
<path d="M714 1910 c-157 -10 -315 -33 -440 -66 -131 -34 -147 -42 -139 -73
37 -144 56 -447 53 -851 -2 -277 -1 -300 20 -375 72 -261 226 -418 478 -486
114 -31 354 -32 469 -1 250 68 408 226 477 478 20 74 22 111 28 549 6 378 11
490 25 570 27 153 29 145 -35 167 -76 26 -275 65 -395 77 -150 15 -394 20
-541 11z m641 -34 c98 -16 265 -55 316 -74 l25 -10 -17 -104 c-28 -160 -42
-455 -36 -717 6 -228 -3 -384 -25 -424 -7 -14 -19 -17 -56 -15 l-47 3 -3 63
c-3 61 -3 62 -32 62 -16 0 -33 6 -37 13 -4 8 -16 18 -26 24 -17 9 -17 12 -4
25 8 8 16 23 18 33 3 15 22 -1 83 -68 67 -74 106 -104 106 -82 0 3 -20 40 -44
83 -23 42 -49 88 -55 100 l-13 24 38 -26 c21 -14 45 -26 52 -26 15 0 -55 137
-140 274 -38 61 -46 81 -37 92 14 17 5 44 -16 44 -9 0 -21 14 -26 30 -6 17
-17 30 -25 30 -17 0 -19 20 -1 21 9 0 9 2 -1 6 -10 4 -10 8 -1 19 9 11 3 10
-19 -3 -19 -11 -26 -20 -19 -25 7 -4 3 -14 -14 -27 -13 -11 -27 -20 -31 -21
-10 0 -38 -30 -38 -41 0 -5 9 -9 20 -9 24 0 25 -15 5 -63 -18 -43 -20 -119 -4
-150 6 -12 24 -35 40 -52 36 -38 82 -141 74 -166 -4 -12 -16 -19 -31 -19 -56
0 -86 -49 -49 -80 9 -7 15 -29 15 -52 l0 -39 -57 3 -58 3 0 290 c1 240 3 301
17 352 36 132 87 204 158 223 56 15 88 5 82 -26 -10 -54 50 -71 117 -32 l38
21 -19 39 c-34 70 -91 87 -116 36 -10 -23 -18 -26 -40 -22 -15 3 -47 -1 -71
-9 l-43 -15 28 30 c16 17 56 50 88 75 57 42 59 43 73 23 16 -23 51 -26 77 -7
10 7 24 36 31 63 l12 49 -43 14 c-23 7 -54 11 -69 7 -33 -8 -54 -50 -37 -76
10 -16 7 -22 -21 -41 -17 -13 -56 -43 -86 -68 -49 -42 -54 -44 -48 -21 4 14 7
31 7 38 0 6 8 12 18 12 25 0 42 19 42 48 0 35 -15 57 -56 81 l-36 21 -18 -22
c-11 -13 -25 -36 -31 -52 -17 -40 5 -81 45 -81 26 1 27 -1 22 -30 -3 -16 -24
-66 -47 -110 -23 -44 -50 -102 -60 -130 l-19 -50 3 175 c3 152 6 182 25 231
21 53 55 94 97 117 14 8 15 11 5 11 -32 0 -96 -73 -118 -134 -9 -26 -11 -17
-11 57 l-1 87 27 3 c20 2 30 11 37 30 12 34 -4 67 -46 98 l-29 22 -35 -36
c-51 -53 -44 -116 13 -116 22 0 23 -3 23 -87 l-1 -88 -19 37 c-11 20 -30 44
-42 53 -17 11 -23 25 -23 52 0 31 -5 40 -28 51 -25 12 -35 12 -75 -3 -26 -10
-48 -19 -49 -19 -6 -4 26 -80 40 -97 23 -27 71 -25 90 4 l15 22 22 -20 c13
-11 32 -40 43 -65 17 -39 21 -71 24 -240 l3 -195 -19 50 c-41 111 -101 193
-184 251 l-29 20 26 12 c23 10 26 9 26 -8 0 -29 34 -44 67 -28 24 11 34 25 64
89 5 11 -5 21 -42 38 -43 19 -52 20 -77 9 -21 -11 -27 -21 -28 -47 0 -26 -6
-37 -27 -47 -23 -13 -31 -13 -58 1 -24 13 -28 19 -19 30 16 19 -3 53 -37 66
-20 7 -35 5 -70 -12 -46 -22 -48 -28 -19 -89 24 -52 106 -60 106 -11 0 14 5
18 20 14 35 -9 31 -20 -23 -61 -62 -46 -119 -125 -145 -200 -10 -28 -21 -54
-23 -56 -8 -9 2 361 12 396 11 41 54 98 74 98 7 0 15 -9 18 -20 6 -23 53 -28
80 -7 14 10 52 97 45 102 -22 15 -95 34 -114 29 -29 -7 -48 -37 -39 -64 4 -14
-4 -30 -29 -55 -20 -20 -36 -42 -36 -50 0 -7 -4 -17 -10 -20 -6 -4 -10 25 -10
79 0 83 1 86 23 86 58 0 65 69 13 119 l-34 33 -30 -22 c-61 -46 -66 -130 -7
-130 25 0 25 -1 25 -87 -1 -84 -1 -86 -14 -52 -18 52 -51 94 -91 119 -28 17
-34 26 -29 44 13 52 -60 74 -122 36 l-33 -21 18 -42 c23 -53 59 -76 95 -59 16
7 26 20 26 32 0 19 2 20 28 6 39 -20 68 -54 94 -111 20 -45 23 -68 25 -230 l3
-180 -21 59 c-11 33 -38 91 -59 130 -21 39 -41 86 -45 104 -7 32 -5 33 15 27
29 -9 60 20 60 56 0 15 -12 42 -27 61 -15 18 -28 34 -29 36 -4 7 -76 -42 -84
-58 -22 -41 -6 -90 30 -90 10 0 20 -14 26 -39 l11 -39 -63 54 c-35 29 -75 60
-89 70 -18 12 -23 20 -16 27 18 18 12 55 -11 71 -27 19 -50 20 -96 4 -33 -12
-34 -14 -27 -53 11 -73 76 -111 109 -64 14 21 15 21 68 -19 29 -22 69 -56 88
-76 l35 -37 -40 16 c-22 10 -53 15 -70 12 -25 -4 -33 -1 -41 16 -25 56 -83 43
-120 -28 l-21 -40 36 -22 c65 -41 129 -24 119 31 -4 21 0 26 21 31 64 13 138
-32 176 -109 54 -110 58 -139 62 -464 l5 -303 -64 3 -63 3 -3 63 c-3 61 -3 62
-32 62 -16 0 -33 6 -37 13 -4 8 -16 18 -26 24 -17 9 -17 11 -3 26 9 8 16 24
16 34 1 12 29 -12 85 -72 107 -115 123 -106 50 24 -30 52 -53 99 -52 104 1 4
-38 36 -88 70 -49 34 -100 78 -113 97 -20 29 -23 30 -17 10 9 -33 26 -49 114
-109 46 -31 82 -65 96 -88 11 -21 38 -69 59 -108 l38 -70 -104 106 c-56 58
-129 122 -161 143 -32 21 -64 51 -72 67 -19 36 -19 110 0 156 8 19 15 44 15
54 0 11 -7 19 -15 19 -17 0 -20 16 -5 25 6 4 20 -5 31 -19 14 -18 30 -26 53
-26 28 0 37 -7 73 -62 41 -63 173 -295 173 -304 0 -3 -14 4 -31 16 -16 12 -32
20 -35 17 -3 -2 11 -15 31 -27 20 -12 39 -19 43 -16 8 9 -35 93 -123 240 -46
77 -62 113 -55 121 15 18 1 45 -21 45 -12 0 -19 7 -19 19 0 11 -10 27 -22 36
-20 13 -21 17 -8 25 12 8 12 10 1 10 -11 0 -11 3 0 17 12 14 9 14 -18 -2 -21
-12 -29 -23 -23 -30 6 -7 -4 -19 -28 -35 -56 -37 -68 -60 -32 -60 24 0 25 -15
4 -66 -11 -26 -15 -57 -12 -96 4 -51 9 -63 40 -96 43 -43 89 -142 81 -171 -4
-14 -14 -21 -30 -21 -56 0 -85 -49 -47 -80 10 -9 14 -26 12 -49 -3 -35 -5 -36
-46 -39 -38 -3 -43 0 -54 25 -8 19 -14 173 -19 488 -7 437 -13 524 -45 707 -5
29 -3 38 13 46 50 27 269 71 473 96 90 11 619 -3 715 -18z m-312 -545 c20 -22
48 -63 62 -90 47 -94 55 -154 55 -443 l0 -268 -60 0 -60 0 0 65 0 65 -31 0
c-22 0 -40 9 -57 27 -22 24 -23 28 -8 38 9 7 16 19 16 28 0 9 35 -21 78 -66
118 -126 130 -119 48 27 -30 53 -52 96 -50 96 3 0 20 -11 38 -25 39 -29 61
-33 52 -8 -9 22 -149 269 -175 308 -15 21 -17 33 -9 42 13 16 4 43 -14 43 -8
0 -19 14 -25 30 -6 17 -19 30 -28 30 -13 0 -15 3 -7 13 9 10 4 18 -21 32 -27
16 -30 16 -18 2 11 -14 11 -17 0 -17 -11 0 -11 -2 1 -10 8 -5 12 -11 10 -13
-3 -2 -22 -16 -42 -31 -42 -31 -49 -56 -18 -56 20 0 28 -24 11 -35 -16 -9 -34
-111 -27 -149 5 -23 21 -51 44 -74 39 -39 86 -139 80 -169 -2 -10 -12 -19 -23
-21 -72 -11 -84 -26 -60 -75 8 -16 15 -45 15 -64 l0 -34 -67 3 -68 3 -3 250
c-2 150 2 277 8 317 21 122 90 233 186 297 l46 30 42 -28 c23 -16 59 -48 79
-70z m-178 -191 c30 0 39 -7 73 -57 48 -71 173 -295 168 -301 -2 -2 -61 36
-131 84 -90 62 -131 96 -141 118 -10 24 -13 26 -14 10 0 -24 44 -67 126 -122
50 -33 69 -54 99 -109 21 -37 49 -88 63 -113 22 -38 9 -28 -89 71 -63 63 -135
129 -161 146 -26 18 -55 44 -65 59 -23 36 -23 127 1 173 19 36 15 61 -9 61
-18 0 -20 16 -2 23 6 3 20 -6 30 -19 13 -17 29 -24 52 -24z m427 25 c14 -17
29 -25 52 -25 29 0 37 -7 83 -77 47 -72 163 -277 163 -288 0 -10 -227 149
-257 181 -18 19 -33 30 -33 25 0 -17 36 -51 109 -100 76 -52 81 -58 158 -201
l35 -65 -104 106 c-56 58 -129 123 -161 144 -32 20 -64 50 -72 66 -19 35 -18
102 0 154 19 52 19 75 0 75 -16 0 -20 12 -8 23 10 11 14 9 35 -18z m-860 -20
c0 -5 -5 -11 -11 -13 -6 -2 -11 4 -11 13 0 9 5 15 11 13 6 -2 11 -8 11 -13z
m508 0 c0 -8 -7 -15 -15 -15 -16 0 -20 12 -8 23 11 12 23 8 23 -8z m472 0 c0
-5 -5 -11 -11 -13 -6 -2 -11 4 -11 13 0 9 5 15 11 13 6 -2 11 -8 11 -13z
m-972 -380 c0 -36 -37 -20 -60 26 -30 57 -24 64 20 29 26 -21 40 -40 40 -55z
m494 26 c23 -25 15 -52 -13 -44 -17 4 -61 77 -61 100 0 7 53 -33 74 -56z m486
-26 c0 -36 -37 -20 -60 26 -30 57 -24 64 20 29 26 -21 40 -40 40 -55z m-1004
-49 c-4 -18 -1 -25 14 -29 21 -5 28 -41 10 -52 -5 -3 -10 1 -10 9 0 11 -9 16
-30 16 -22 0 -28 -4 -24 -15 4 -8 1 -15 -5 -15 -6 0 -11 7 -11 15 0 8 -9 15
-20 15 -11 0 -20 -7 -20 -16 0 -8 -4 -12 -10 -9 -5 3 -10 14 -10 24 0 19 26
31 66 31 15 0 24 8 28 25 4 14 11 25 17 25 7 0 9 -10 5 -24z m502 -1 c-3 -16
-1 -25 7 -25 19 0 36 -26 29 -44 -3 -9 -10 -16 -15 -16 -4 0 -6 7 -3 15 5 11
-1 15 -25 15 -23 0 -31 -5 -31 -17 -1 -17 -1 -17 -14 0 -7 9 -21 17 -30 17 -9
0 -16 -8 -16 -17 -1 -16 -2 -16 -12 1 -13 24 12 46 52 46 19 0 30 7 38 25 6
14 14 25 18 25 3 0 4 -11 2 -25z m478 1 c-4 -18 -1 -25 14 -29 21 -5 28 -41
10 -52 -5 -3 -10 1 -10 9 0 10 -9 16 -25 16 -16 0 -25 -6 -25 -15 0 -8 -4 -15
-10 -15 -5 0 -10 7 -10 15 0 8 -9 15 -20 15 -11 0 -20 -7 -20 -16 0 -8 -4 -12
-10 -9 -5 3 -10 14 -10 24 0 19 26 31 66 31 15 0 24 8 28 25 4 14 11 25 17 25
7 0 9 -10 5 -24z m-451 -274 c6 -20 16 -32 26 -32 29 0 30 -16 4 -28 -30 -14
-32 -42 -6 -66 15 -14 24 -15 40 -7 13 7 22 8 26 1 11 -17 54 -11 64 9 8 14 6
25 -10 45 l-20 26 25 0 c14 0 28 5 31 10 6 9 65 15 65 6 0 -2 -16 -20 -35 -39
-21 -21 -35 -45 -35 -59 l0 -24 -200 0 c-189 0 -200 1 -200 19 0 26 -19 59
-49 84 l-26 22 25 0 c14 1 42 -5 63 -13 33 -11 36 -14 22 -26 -24 -20 -15 -64
14 -68 13 -2 28 1 34 7 6 6 16 7 28 1 24 -14 48 -2 55 26 7 27 -10 54 -33 54
-8 0 -11 5 -8 10 3 6 14 10 24 10 10 0 22 13 30 36 15 42 32 40 46 -4z m143
-178 c29 -5 33 -8 28 -27 -3 -12 -6 -29 -6 -37 0 -13 -28 -15 -190 -15 l-190
0 0 37 c0 31 4 39 23 43 51 11 260 11 335 -1z m-37 -91 c54 -6 59 -8 34 -14
-41 -9 -271 -10 -320 -2 l-40 8 45 6 c67 9 208 10 281 2z"/>
<path d="M1326 1771 c-17 -19 -17 -23 -1 -70 18 -56 45 -72 84 -52 17 10 61
77 61 95 0 2 -15 14 -34 25 -42 26 -88 27 -110 2z"/>
<path d="M320 1280 c0 -5 5 -10 11 -10 5 0 7 5 4 10 -3 6 -8 10 -11 10 -2 0
-4 -4 -4 -10z"/>
<path d="M1300 1280 c0 -5 5 -10 11 -10 5 0 7 5 4 10 -3 6 -8 10 -11 10 -2 0
-4 -4 -4 -10z"/>
<path d="M382 1091 c-11 -7 -11 -9 2 -14 10 -4 16 -1 16 8 0 17 -1 17 -18 6z"/>
<path d="M342 1045 c-11 -12 -10 -15 3 -15 8 0 15 7 15 15 0 18 -2 18 -18 0z"/>
<path d="M416 1035 c-3 -8 -1 -15 4 -15 6 0 10 7 10 15 0 8 -2 15 -4 15 -2 0
-6 -7 -10 -15z"/>
<path d="M452 985 c-11 -12 -10 -15 3 -15 8 0 15 7 15 15 0 18 -2 18 -18 0z"/>
<path d="M370 980 c-13 -8 -12 -10 3 -10 9 0 17 5 17 10 0 12 -1 12 -20 0z"/>
<path d="M430 935 c-8 -9 -8 -15 -2 -15 12 0 26 19 19 26 -2 2 -10 -2 -17 -11z"/>
<path d="M482 925 c-11 -12 -10 -15 3 -15 8 0 15 7 15 15 0 18 -2 18 -18 0z"/>
<path d="M510 870 c-13 -8 -12 -10 3 -10 9 0 17 5 17 10 0 12 -1 12 -20 0z"/>
<path d="M865 1280 c-3 -5 -1 -10 4 -10 6 0 11 5 11 10 0 6 -2 10 -4 10 -3 0
-8 -4 -11 -10z"/>
<path d="M891 1091 c-8 -6 -9 -11 -3 -15 6 -3 14 -1 17 5 9 14 2 20 -14 10z"/>
<path d="M845 1040 c-19 -8 -19 -9 3 -9 12 -1 22 4 22 9 0 6 -1 10 -2 9 -2 0
-12 -4 -23 -9z"/>
<path d="M920 1035 c-10 -12 -10 -15 4 -15 9 0 16 7 16 15 0 8 -2 15 -4 15 -2
0 -9 -7 -16 -15z"/>
<path d="M882 985 c-11 -12 -10 -15 3 -15 8 0 15 7 15 15 0 18 -2 18 -18 0z"/>
<path d="M952 985 c-11 -12 -10 -15 3 -15 8 0 15 7 15 15 0 18 -2 18 -18 0z"/>
<path d="M932 935 c-11 -12 -10 -15 3 -15 8 0 15 7 15 15 0 18 -2 18 -18 0z"/>
<path d="M980 920 c-13 -8 -13 -10 2 -10 9 0 20 5 23 10 8 13 -5 13 -25 0z"/>
<path d="M1022 875 c-11 -12 -10 -15 3 -15 8 0 15 7 15 15 0 18 -2 18 -18 0z"/>
<path d="M1362 1091 c-11 -7 -11 -9 2 -14 10 -4 16 -1 16 8 0 17 -1 17 -18 6z"/>
<path d="M1322 1045 c-11 -12 -10 -15 3 -15 8 0 15 7 15 15 0 18 -2 18 -18 0z"/>
<path d="M1396 1035 c-3 -8 -1 -15 3 -15 5 0 11 7 15 15 3 8 1 15 -3 15 -5 0
-11 -7 -15 -15z"/>
<path d="M1432 985 c-11 -12 -10 -15 3 -15 8 0 15 7 15 15 0 18 -2 18 -18 0z"/>
<path d="M1350 980 c-13 -8 -13 -10 2 -10 9 0 20 5 23 10 8 13 -5 13 -25 0z"/>
<path d="M1410 935 c-8 -9 -8 -15 -2 -15 12 0 26 19 19 26 -2 2 -10 -2 -17
-11z"/>
<path d="M1462 925 c-11 -12 -10 -15 3 -15 8 0 15 7 15 15 0 18 -2 18 -18 0z"/>
<path d="M1490 870 c-13 -8 -13 -10 2 -10 9 0 20 5 23 10 8 13 -5 13 -25 0z"/>
<path d="M775 246 c-16 -12 -17 -16 -6 -30 17 -20 45 -21 61 -1 10 12 10 18 0
30 -16 19 -31 19 -55 1z m44 -5 c17 -11 6 -31 -18 -31 -25 0 -33 11 -20 27 13
15 19 16 38 4z"/>
<path d="M887 245 c-18 -13 -17 -14 7 -30 24 -16 28 -16 52 0 24 16 25 17 7
30 -10 8 -25 14 -33 14 -8 0 -23 -6 -33 -14z m47 -1 c13 -5 14 -10 5 -20 -8
-10 -16 -11 -31 -3 -17 9 -18 13 -7 20 17 11 14 10 33 3z"/>
<path d="M1010 245 c-10 -12 -10 -18 0 -30 16 -20 44 -19 61 1 11 14 10 18 -6
30 -24 18 -39 18 -55 -1z m49 -9 c15 -18 -1 -30 -30 -21 -16 5 -18 10 -8 21
15 18 23 18 38 0z"/>
</g>
</svg>
